<svg width="345" height="68" viewBox="0 0 345 68" fill="none" xmlns="http://www.w3.org/2000/svg">
<path d="M108.4 51L119.096 13.648H106.384L101.624 36.496L95.968 13.648H87.456L81.8 36.496L76.984 13.648H64.328L75.024 51H86.896L91.712 29.832L96.528 51H108.4ZM130.075 51.672C139.707 51.672 145.307 45.008 145.307 37.448C145.307 29.888 139.707 23.28 130.075 23.28C120.499 23.28 114.899 29.888 114.899 37.448C114.899 45.008 120.499 51.672 130.075 51.672ZM130.075 42.768C126.995 42.768 125.259 40.472 125.259 37.448C125.259 34.48 126.995 32.184 130.075 32.184C133.211 32.184 134.947 34.48 134.947 37.448C134.947 40.472 133.211 42.768 130.075 42.768ZM156.908 51V34.424C158.028 33.08 160.772 32.52 162.9 32.52C163.852 32.52 164.692 32.632 165.196 32.8V23.168C162.116 23.168 158.588 24.96 156.908 26.92V23.952H146.828V51H156.908ZM195.472 51L185.56 36.272L194.856 23.952H182.704L176.488 33.584V13.648H166.408V51H176.488V44.896L178.448 42.264L183.096 51H195.472Z" fill="black"/>
<path d="M208.668 51.672C214.828 51.672 218.636 48.816 220.148 46.576L213.652 40.416C212.812 41.648 211.244 42.768 209.116 42.768C206.26 42.768 203.796 40.92 203.796 37.448C203.796 33.976 206.26 32.184 209.116 32.184C211.244 32.184 212.812 33.192 213.652 34.48L220.148 28.376C218.636 26.08 214.828 23.28 208.668 23.28C200.1 23.28 193.492 28.88 193.492 37.448C193.492 46.072 200.1 51.672 208.668 51.672ZM246.913 51V34.648C246.913 25.632 240.361 23.28 233.641 23.28C229.553 23.28 224.513 24.456 220.873 27.368L224.289 33.584C226.417 31.96 229.273 30.952 231.793 30.952C235.097 30.952 236.833 32.408 236.833 34.312V37.112C235.377 35.264 232.185 34.144 228.657 34.144C224.625 34.144 219.361 36.048 219.361 42.768C219.361 48.928 224.625 51.672 228.657 51.672C232.017 51.672 235.321 50.328 236.833 48.424V51H246.913ZM232.857 45.12C231.177 45.12 229.329 44.616 229.329 42.936C229.329 41.256 231.177 40.696 232.857 40.696C234.425 40.696 236.161 41.2 236.833 42.152V43.664C236.161 44.616 234.425 45.12 232.857 45.12ZM261.619 51.672C265.035 51.672 267.387 50.832 268.451 49.88L266.659 42.264C266.435 42.488 265.539 42.768 264.643 42.768C263.299 42.768 262.403 41.648 262.403 40.248V32.688H267.891V23.952H262.403V16.56H252.323V23.952H247.843V32.688H252.323V43.16C252.323 48.816 255.627 51.672 261.619 51.672ZM274.433 21.992C277.569 21.992 280.089 19.472 280.089 16.336C280.089 13.2 277.569 10.68 274.433 10.68C271.297 10.68 268.777 13.2 268.777 16.336C268.777 19.472 271.297 21.992 274.433 21.992ZM279.473 51V23.952H269.393V51H279.473ZM296.177 51.672C305.809 51.672 311.409 45.008 311.409 37.448C311.409 29.888 305.809 23.28 296.177 23.28C286.601 23.28 281.001 29.888 281.001 37.448C281.001 45.008 286.601 51.672 296.177 51.672ZM296.177 42.768C293.097 42.768 291.361 40.472 291.361 37.448C291.361 34.48 293.097 32.184 296.177 32.184C299.313 32.184 301.049 34.48 301.049 37.448C301.049 40.472 299.313 42.768 296.177 42.768ZM341.321 51V31.792C341.321 27.088 338.577 23.28 332.305 23.28C327.545 23.28 324.577 25.24 323.009 27.032V23.952H312.929V51H323.009V34.312C323.849 33.36 325.025 32.184 327.321 32.184C329.729 32.184 331.241 33.248 331.241 36.048V51H341.321Z" fill="#6100FF"/>
<path d="M7.6375 31.5H12.5C13.8261 31.5 15.0979 32.0268 16.0355 32.9645C16.9732 33.9021 17.5 35.1739 17.5 36.5V39C17.5 40.3261 18.0268 41.5979 18.9645 42.5355C19.9021 43.4732 21.1739 44 22.5 44C23.8261 44 25.0979 44.5268 26.0355 45.4645C26.9732 46.4021 27.5 47.6739 27.5 49V56.3625M20 13.8375V17.75C20 19.4076 20.6585 20.9973 21.8306 22.1694C23.0027 23.3415 24.5924 24 26.25 24H27.5C28.8261 24 30.0979 24.5268 31.0355 25.4645C31.9732 26.4021 32.5 27.6739 32.5 29C32.5 30.3261 33.0268 31.5979 33.9645 32.5355C34.9021 33.4732 36.1739 34 37.5 34C38.8261 34 40.0979 33.4732 41.0355 32.5355C41.9732 31.5979 42.5 30.3261 42.5 29C42.5 27.6739 43.0268 26.4021 43.9645 25.4645C44.9021 24.5268 46.1739 24 47.5 24H50.16M37.5 55.22V49C37.5 47.6739 38.0268 46.4021 38.9645 45.4645C39.9021 44.5268 41.1739 44 42.5 44H50.16M52.5 34C52.5 36.9547 51.918 39.8806 50.7873 42.6104C49.6566 45.3402 47.9992 47.8206 45.9099 49.9099C43.8206 51.9992 41.3402 53.6566 38.6104 54.7873C35.8806 55.918 32.9547 56.5 30 56.5C27.0453 56.5 24.1194 55.918 21.3896 54.7873C18.6598 53.6566 16.1794 51.9992 14.0901 49.9099C12.0008 47.8206 10.3434 45.3402 9.21271 42.6104C8.08198 39.8806 7.5 36.9547 7.5 34C7.5 28.0326 9.87053 22.3097 14.0901 18.0901C18.3097 13.8705 24.0326 11.5 30 11.5C35.9674 11.5 41.6903 13.8705 45.9099 18.0901C50.1295 22.3097 52.5 28.0326 52.5 34Z" stroke="#6100FF" stroke-width="5" stroke-linecap="round" stroke-linejoin="round"/>
</svg>
